<svg width="25" height="24" viewBox="0 0 25 24" fill="none" xmlns="http://www.w3.org/2000/svg">
<path d="M3.40954 5.91C3.05648 5.55695 3.0576 4.98418 3.41204 4.63251C3.76452 4.28278 4.33343 4.2839 4.68454 4.635L20.1345 20.085C20.4856 20.4361 20.4867 21.005 20.137 21.3575C19.7854 21.7119 19.2126 21.7131 18.8595 21.36L16.8553 19.3557C16.5881 19.0886 16.1941 18.9985 15.8295 19.0974C14.8547 19.362 13.8328 19.5 12.7695 19.5C7.9086 19.5 3.73763 16.5606 1.91974 12.3633C1.81934 12.1315 1.81907 11.8685 1.91913 11.6365C2.47113 10.3569 3.24321 9.19622 4.19086 8.19912C4.58881 7.7804 4.61371 7.11418 4.20524 6.70571L3.40954 5.91ZM12.7695 9C13.5652 9 14.3282 9.31607 14.8909 9.87868C15.4535 10.4413 15.7695 11.2044 15.7695 12C15.7702 12.4723 15.2128 12.6133 14.8788 12.2793L12.4902 9.89071C12.1562 9.55671 12.2972 8.9993 12.7695 9ZM12.7695 4.5C17.6302 4.5 21.8009 7.43905 23.619 11.636C23.7196 11.8682 23.7197 12.1317 23.6192 12.364C22.9001 14.0256 21.8087 15.4975 20.4319 16.667C20.0621 16.9811 19.5167 16.9354 19.1748 16.5911C18.7446 16.1578 18.8135 15.4425 19.271 15.0381C20.1097 14.2967 20.8174 13.4166 21.3622 12.4349C21.5124 12.1642 21.5126 11.8357 21.3627 11.5649C20.5548 10.1053 19.3869 8.87306 17.9668 7.9875C16.4076 7.01524 14.607 6.49988 12.7695 6.5C11.8889 6.5 11.0213 6.6175 10.1931 6.8314C9.83168 6.92475 9.44336 6.83491 9.17856 6.57183L9.11914 6.51279C8.61678 6.01369 8.78113 5.16785 9.46117 4.97034C10.511 4.66545 11.6213 4.5 12.7695 4.5ZM4.1769 11.565C4.02678 11.8358 4.0265 12.1644 4.17643 12.4352C4.98431 13.8947 6.15218 15.127 7.57226 16.0125C9.13142 16.9848 10.9321 17.5001 12.7695 17.5C12.8356 17.5 12.9016 17.4994 12.9675 17.4981C13.7555 17.4827 14.0436 16.5609 13.4876 16.0024L12.7394 15.251C12.5778 15.0886 12.3638 14.9925 12.1403 14.942C11.5781 14.8149 11.0605 14.531 10.6495 14.12C10.238 13.7085 9.95398 13.1902 9.82707 12.6272C9.77696 12.4049 9.68181 12.192 9.5209 12.0306L7.02488 9.52728C6.65531 9.15662 6.0581 9.13008 5.69523 9.5073C5.10997 10.1157 4.59766 10.8061 4.1769 11.565Z" fill="#979797"/>
</svg>
